<?xml version="1.0" encoding="utf-8"?>
<!-- Generator: Adobe Illustrator 21.1.0, SVG Export Plug-In . SVG Version: 6.00 Build 0)  -->
<svg version="1.1" xmlns="http://www.w3.org/2000/svg" xmlns:xlink="http://www.w3.org/1999/xlink" x="0px" y="0px"
	 viewBox="0 0 129.4 129.4" style="enable-background:new 0 0 129.4 129.4;" xml:space="preserve">
<style type="text/css">
	.st0{display:none;}
	.st1{display:inline;}
	.st2{display:inline;fill:none;stroke:#000000;stroke-miterlimit:10;}
</style>
<g id="Layer_1" class="st0">
	<g class="st1">
		<title>Responsive</title>
		<path d="M40.6,98.9H34c-1.2,0-2.2-0.9-2.3-2.1H11.5v1.9c0,1.3,1,2.3,2.3,2.3h0h48.3c1.3,0,2.3-1,2.3-2.3l0,0v-1.9H43
			C42.8,97.9,41.8,98.9,40.6,98.9z"/>
		<path d="M114.7,56.7h-6.8V28.9c0-1.9-1.5-3.4-3.4-3.4l0,0h-82c-1.9,0-3.4,1.5-3.4,3.4l0,0v27.8h-4.1c-1.9,0-3.4,1.5-3.4,3.4v0
			v34.2h53v-5H77c1.3,0,2.3-1,2.3-2.3l0,0v-2.5c0-1.3-1-2.3-2.3-2.3l0,0H64.5v-4.6H87v20.9c0,1.8,1.5,3.3,3.3,3.3h24.4
			c1.8,0,3.3-1.5,3.3-3.3V60C118,58.2,116.5,56.7,114.7,56.7z M115.8,60v34.4H89.2V60c0-0.6,0.5-1.1,1.1-1.1h24.4
			C115.3,58.9,115.8,59.4,115.8,60z M100.6,97.1c0-0.9,0.7-1.6,1.6-1.6s1.6,0.7,1.6,1.6s-0.7,1.6-1.6,1.6S100.6,98,100.6,97.1
			L100.6,97.1z M62.3,92.1H13.7v-32c0-0.7,0.6-1.2,1.2-1.2H61c0.7,0,1.2,0.6,1.2,1.2L62.3,92.1L62.3,92.1z M64.5,75.4V60.1
			c0-1.9-1.5-3.4-3.4-3.4H21.2V28.9c0-0.7,0.6-1.2,1.2-1.2c0,0,0,0,0,0h82c0.7,0,1.2,0.6,1.2,1.2v0v27.8H90.3
			c-1.8,0-3.3,1.5-3.3,3.3v15.4L64.5,75.4L64.5,75.4z"/>
		<polygon points="28.5,76 35.2,79.3 35.2,77.8 30.3,75.6 30.3,75.6 35.2,73.3 35.2,71.8 28.5,75.1 		"/>
		<polygon points="35.7,79.8 36.9,79.8 40.2,69.7 39,69.7 		"/>
		<polygon points="40.7,73.2 46.1,75.5 46.1,75.6 40.7,77.9 40.7,79.3 47.4,76.2 47.4,74.9 40.7,71.8 		"/>
		<polygon points="48.2,46.1 59,51.4 59,49.1 51,45.4 51,45.4 59,41.7 59,39.4 48.2,44.7 		"/>
		<polygon points="59.8,52.3 61.7,52.3 67,36 65,36 		"/>
		<polygon points="67.9,41.6 76.5,45.4 76.5,45.4 67.9,49.1 67.9,51.4 78.7,46.4 78.7,44.4 67.9,39.4 		"/>
		<polygon points="100.7,78.5 97.5,77 97.5,77 100.7,75.5 100.7,74.6 96.4,76.7 96.4,77.2 100.7,79.4 		"/>
		<polygon points="103.9,73.2 103.2,73.2 101,79.7 101.8,79.7 		"/>
		<polygon points="108.7,76.6 104.3,74.6 104.3,75.5 107.8,77 107.8,77 104.3,78.5 104.3,79.4 108.7,77.4 		"/>
	</g>
</g>
<g id="Layer_3" class="st0">
	<rect x="19" y="19" class="st2" width="91.5" height="91.5"/>
</g>
<g id="Layer_2" class="st0">
	<circle class="st2" cx="64.7" cy="64.7" r="64.7"/>
</g>
<g id="Layer_4">
	<g>
		<g>
			<path d="M128.6,58.7c0-2.5-0.3-5.1-1-7.8l-0.6-2.3H65.3l-0.6,2.3c-0.7,2.6-1,5.2-1,7.8v32.8h8.1c0.5,9.3,8.3,16.7,17.7,16.7h0.5
				v14.7h38.5C128.6,122.9,128.6,58.7,128.6,58.7z M122.6,116.8H96.2v-14.7h-6.6c-6.4,0-11.7-5.2-11.7-11.7v-5.1h-8.1V58.7
				c0-1.3,0.1-2.6,0.3-4h52.1c0.2,1.3,0.3,2.7,0.3,4L122.6,116.8L122.6,116.8z"/>
			<circle cx="82" cy="72.2" r="4.1"/>
			<polygon points="96.4,25.4 108.7,25.4 102.5,14.8 			"/>
			<polygon points="91.3,44.1 91.3,40.6 94.7,40.6 94.7,38.4 94.7,36.1 91.3,36.1 91.3,32.7 89,32.7 86.7,32.7 86.7,36.1 83.3,36.1 
				83.3,38.4 83.3,40.6 86.7,40.6 86.7,44.1 			"/>
			<path d="M112.9,37.5c-0.5-0.1-1,0.1-1.3,0.4c-0.2,0.2-0.4,0.5-0.4,0.8c-0.1,0.6-0.4,1.2-0.8,1.6c-1.2,1.2-3.1,1.2-4.3,0
				c-1.2-1.2-1.2-3.1,0-4.3c0.5-0.5,1-0.7,1.6-0.8c0.3-0.1,0.6-0.2,0.8-0.4c0.3-0.3,0.5-0.8,0.4-1.3c-0.1-0.8-0.9-1.4-1.7-1.3
				c-1.3,0.2-2.4,0.8-3.3,1.7c-2.4,2.4-2.4,6.2,0,8.6c1.2,1.2,2.7,1.8,4.3,1.8c1.6,0,3.1-0.6,4.3-1.8c0.9-0.9,1.5-2,1.7-3.3
				C114.3,38.4,113.7,37.7,112.9,37.5z"/>
			<circle cx="109.8" cy="7.4" r="3.2"/>
			<circle cx="126.3" cy="38.4" r="3.2"/>
			<rect x="116.8" y="17.7" width="9.1" height="9.1"/>
			<path d="M67.3,36.4l-1.9,0.1c-0.8,0-1.5,0.7-1.5,1.6c0,0.8,0.7,1.5,1.5,1.5c0,0,0,0,0.1,0l9.6-0.3l-2.3-7.3l7.6-0.3l-1.5-4.9
				l-0.7-2.4l3.7-0.1l1.9-0.1c0.8,0,1.5-0.7,1.5-1.6c0-0.8-0.7-1.5-1.6-1.5l-9.6,0.3l2.3,7.3l-7.6,0.3l1.5,4.9l0.7,2.4L67.3,36.4z"
				/>
			<polygon points="85.8,12.3 87.5,13.9 89.9,11.5 92.3,13.9 95.5,10.7 93.1,8.3 95.5,5.9 92.3,2.7 89.9,5.1 87.5,2.7 84.2,5.9 
				86.7,8.3 84.2,10.7 			"/>
		</g>
	</g>
</g>
</svg>
