<svg id="Layer_1" data-name="Layer 1" xmlns="http://www.w3.org/2000/svg" viewBox="0 0 100 100"><title>front-end</title><path d="M40.65,98.86H34a2.32,2.32,0,0,1-2.31-2.11H11.46v1.93A2.33,2.33,0,0,0,13.79,101H62.11a2.33,2.33,0,0,0,2.33-2.33h0V96.75H43A2.32,2.32,0,0,1,40.65,98.86Z" transform="translate(-11.46 -25.52)"/><path d="M114.68,56.72h-6.82V28.94a3.43,3.43,0,0,0-3.43-3.43h-82A3.43,3.43,0,0,0,19,28.94h0V56.72H14.9a3.43,3.43,0,0,0-3.44,3.41h0v34.2h53v-5H77A2.33,2.33,0,0,0,79.28,87h0v-2.5A2.33,2.33,0,0,0,77,82.21H64.49V77.6H87V98.46a3.29,3.29,0,0,0,3.29,3.29h24.35A3.29,3.29,0,0,0,118,98.46V60A3.29,3.29,0,0,0,114.68,56.72Zm1.1,3.29V94.41H89.23V60a1.1,1.1,0,0,1,1.1-1.1h24.35A1.1,1.1,0,0,1,115.78,60Zm-15.15,37.1a1.61,1.61,0,1,1,1.61,1.61,1.61,1.61,0,0,1-1.61-1.61Zm-38.32-5H13.66v-32a1.23,1.23,0,0,1,1.23-1.23H61a1.23,1.23,0,0,1,1.23,1.23v32ZM64.5,75.4V60.14a3.43,3.43,0,0,0-3.43-3.43H21.18V28.94a1.23,1.23,0,0,1,1.24-1.22h82A1.23,1.23,0,0,1,105.66,29h0V56.72H90.29A3.29,3.29,0,0,0,87,60V75.39H64.5Z" transform="translate(-11.46 -25.52)"/><polygon points="17.07 50.47 23.76 53.74 23.76 52.33 18.85 50.06 18.85 50.04 23.76 47.74 23.76 46.33 17.07 49.6 17.07 50.47"/><polygon points="24.27 54.3 25.45 54.3 28.73 44.23 27.53 44.23 24.27 54.3"/><polygon points="29.29 47.71 34.63 50.02 34.63 50.05 29.29 52.35 29.29 53.74 35.97 50.64 35.97 49.42 29.29 46.33 29.29 47.71"/><polygon points="36.71 20.57 47.5 25.86 47.5 23.59 39.59 19.92 39.59 19.88 47.5 16.18 47.5 13.89 36.71 19.17 36.71 20.57"/><polygon points="48.31 26.75 50.23 26.75 55.51 10.52 53.57 10.52 48.31 26.75"/><polygon points="56.41 16.12 65.04 19.85 65.04 19.9 56.41 23.63 56.41 25.86 67.2 20.86 67.2 18.89 56.41 13.89 56.41 16.12"/><polygon points="89.24 52.95 86.04 51.47 86.04 51.44 89.24 49.96 89.24 49.04 84.89 51.17 84.89 51.73 89.24 53.86 89.24 52.95"/><polygon points="92.47 47.68 91.69 47.68 89.57 54.22 90.34 54.22 92.47 47.68"/><polygon points="97.19 51.05 92.84 49.04 92.84 49.94 96.32 51.44 96.32 51.45 92.84 52.96 92.84 53.86 97.19 51.85 97.19 51.05"/></svg>