<?xml version="1.0" encoding="utf-8"?>
<!-- Generator: Adobe Illustrator 21.1.0, SVG Export Plug-In . SVG Version: 6.00 Build 0)  -->
<svg version="1.1" xmlns="http://www.w3.org/2000/svg" xmlns:xlink="http://www.w3.org/1999/xlink" x="0px" y="0px"
	 viewBox="0 0 129.4 129.4" style="enable-background:new 0 0 129.4 129.4;" xml:space="preserve">
<style type="text/css">
	.st0{display:none;}
	.st1{display:inline;}
	.st2{display:inline;fill:none;stroke:#000000;stroke-miterlimit:10;}
</style>
<g id="Layer_1" class="st0">
	<g class="st1">
		<title>Responsive</title>
		<path d="M40.6,98.9H34c-1.2,0-2.2-0.9-2.3-2.1H11.5v1.9c0,1.3,1,2.3,2.3,2.3h0h48.3c1.3,0,2.3-1,2.3-2.3l0,0v-1.9H43
			C42.8,97.9,41.8,98.9,40.6,98.9z"/>
		<path d="M114.7,56.7h-6.8V28.9c0-1.9-1.5-3.4-3.4-3.4l0,0h-82c-1.9,0-3.4,1.5-3.4,3.4l0,0v27.8h-4.1c-1.9,0-3.4,1.5-3.4,3.4v0
			v34.2h53v-5H77c1.3,0,2.3-1,2.3-2.3l0,0v-2.5c0-1.3-1-2.3-2.3-2.3l0,0H64.5v-4.6H87v20.9c0,1.8,1.5,3.3,3.3,3.3h24.4
			c1.8,0,3.3-1.5,3.3-3.3V60C118,58.2,116.5,56.7,114.7,56.7z M115.8,60v34.4H89.2V60c0-0.6,0.5-1.1,1.1-1.1h24.4
			C115.3,58.9,115.8,59.4,115.8,60z M100.6,97.1c0-0.9,0.7-1.6,1.6-1.6s1.6,0.7,1.6,1.6s-0.7,1.6-1.6,1.6S100.6,98,100.6,97.1
			L100.6,97.1z M62.3,92.1H13.7v-32c0-0.7,0.6-1.2,1.2-1.2H61c0.7,0,1.2,0.6,1.2,1.2L62.3,92.1L62.3,92.1z M64.5,75.4V60.1
			c0-1.9-1.5-3.4-3.4-3.4H21.2V28.9c0-0.7,0.6-1.2,1.2-1.2c0,0,0,0,0,0h82c0.7,0,1.2,0.6,1.2,1.2v0v27.8H90.3
			c-1.8,0-3.3,1.5-3.3,3.3v15.4L64.5,75.4L64.5,75.4z"/>
		<polygon points="28.5,76 35.2,79.3 35.2,77.8 30.3,75.6 30.3,75.6 35.2,73.3 35.2,71.8 28.5,75.1 		"/>
		<polygon points="35.7,79.8 36.9,79.8 40.2,69.7 39,69.7 		"/>
		<polygon points="40.7,73.2 46.1,75.5 46.1,75.6 40.7,77.9 40.7,79.3 47.4,76.2 47.4,74.9 40.7,71.8 		"/>
		<polygon points="48.2,46.1 59,51.4 59,49.1 51,45.4 51,45.4 59,41.7 59,39.4 48.2,44.7 		"/>
		<polygon points="59.8,52.3 61.7,52.3 67,36 65,36 		"/>
		<polygon points="67.9,41.6 76.5,45.4 76.5,45.4 67.9,49.1 67.9,51.4 78.7,46.4 78.7,44.4 67.9,39.4 		"/>
		<polygon points="100.7,78.5 97.5,77 97.5,77 100.7,75.5 100.7,74.6 96.4,76.7 96.4,77.2 100.7,79.4 		"/>
		<polygon points="103.9,73.2 103.2,73.2 101,79.7 101.8,79.7 		"/>
		<polygon points="108.7,76.6 104.3,74.6 104.3,75.5 107.8,77 107.8,77 104.3,78.5 104.3,79.4 108.7,77.4 		"/>
	</g>
</g>
<g id="Layer_3" class="st0">
	<rect x="19" y="19" class="st2" width="91.5" height="91.5"/>
</g>
<g id="Layer_2" class="st0">
	<circle class="st2" cx="64.7" cy="64.7" r="64.7"/>
</g>
<g id="Layer_4" class="st0">
	<g class="st1">
		<g>
			<path d="M128.6,58.7c0-2.5-0.3-5.1-1-7.8l-0.6-2.3H65.3l-0.6,2.3c-0.7,2.6-1,5.2-1,7.8v32.8h8.1c0.5,9.3,8.3,16.7,17.7,16.7h0.5
				v14.7h38.5C128.6,122.9,128.6,58.7,128.6,58.7z M122.6,116.8H96.2v-14.7h-6.6c-6.4,0-11.7-5.2-11.7-11.7v-5.1h-8.1V58.7
				c0-1.3,0.1-2.6,0.3-4h52.1c0.2,1.3,0.3,2.7,0.3,4L122.6,116.8L122.6,116.8z"/>
			<circle cx="82" cy="72.2" r="4.1"/>
			<polygon points="96.4,25.4 108.7,25.4 102.5,14.8 			"/>
			<polygon points="91.3,44.1 91.3,40.6 94.7,40.6 94.7,38.4 94.7,36.1 91.3,36.1 91.3,32.7 89,32.7 86.7,32.7 86.7,36.1 83.3,36.1 
				83.3,38.4 83.3,40.6 86.7,40.6 86.7,44.1 			"/>
			<path d="M112.9,37.5c-0.5-0.1-1,0.1-1.3,0.4c-0.2,0.2-0.4,0.5-0.4,0.8c-0.1,0.6-0.4,1.2-0.8,1.6c-1.2,1.2-3.1,1.2-4.3,0
				c-1.2-1.2-1.2-3.1,0-4.3c0.5-0.5,1-0.7,1.6-0.8c0.3-0.1,0.6-0.2,0.8-0.4c0.3-0.3,0.5-0.8,0.4-1.3c-0.1-0.8-0.9-1.4-1.7-1.3
				c-1.3,0.2-2.4,0.8-3.3,1.7c-2.4,2.4-2.4,6.2,0,8.6c1.2,1.2,2.7,1.8,4.3,1.8c1.6,0,3.1-0.6,4.3-1.8c0.9-0.9,1.5-2,1.7-3.3
				C114.3,38.4,113.7,37.7,112.9,37.5z"/>
			<circle cx="109.8" cy="7.4" r="3.2"/>
			<circle cx="126.3" cy="38.4" r="3.2"/>
			<rect x="116.8" y="17.7" width="9.1" height="9.1"/>
			<path d="M67.3,36.4l-1.9,0.1c-0.8,0-1.5,0.7-1.5,1.6c0,0.8,0.7,1.5,1.5,1.5c0,0,0,0,0.1,0l9.6-0.3l-2.3-7.3l7.6-0.3l-1.5-4.9
				l-0.7-2.4l3.7-0.1l1.9-0.1c0.8,0,1.5-0.7,1.5-1.6c0-0.8-0.7-1.5-1.6-1.5l-9.6,0.3l2.3,7.3l-7.6,0.3l1.5,4.9l0.7,2.4L67.3,36.4z"
				/>
			<polygon points="85.8,12.3 87.5,13.9 89.9,11.5 92.3,13.9 95.5,10.7 93.1,8.3 95.5,5.9 92.3,2.7 89.9,5.1 87.5,2.7 84.2,5.9 
				86.7,8.3 84.2,10.7 			"/>
		</g>
	</g>
</g>
<g id="Layer_5" class="st0">
	<path class="st1" d="M17.2,23.4c-2.8,3.5-4.1,8-3.5,12.5c0.5,4.5,2.8,8.5,6.3,11.3c3,2.4,6.7,3.7,10.5,3.7c0.7,0,1.4,0,2.1-0.1
		l53.9,39.5c0.3,0.1,0.5,0.3,0.8,0.3c0.4,0,0.8-0.1,1.1-0.5l2.4-2.9l7.6,5.3c0.3,0.1,0.5,0.3,0.8,0.3c0.4,0,0.8-0.1,1.1-0.5l0.5-0.7
		l9.2,7.4c1.8,1.4,2.2,4.2,0.7,6c-0.7,0.9-1.7,1.4-2.9,1.6c-1.2,0.1-2.2-0.1-3.2-0.9l-2.5-2c-3-2.4-7.4-1.8-9.7,1.1
		c-1.2,1.4-1.7,3.3-1.4,5.1c0.3,1.8,1.2,3.4,2.5,4.6l2.5,2c0.3,0.1,0.5,0.3,0.8,0.3c0.4,0,0.8-0.1,1.1-0.5c0.4-0.5,0.4-1.4-0.3-1.8
		l-2.5-2c-1.8-1.4-2.1-4.2-0.7-6c1.4-1.8,4.2-2.1,6-0.7l2.5,2c1.4,1.2,3.3,1.7,5.1,1.4c1.8-0.3,3.4-1.2,4.6-2.5
		c2.4-3,1.8-7.4-1.1-9.7l-0.3-0.3l-8.9-7.1l0.5-0.5c0.4-0.5,0.4-1.3-0.1-1.8l-6.8-6.3l2.4-3c0.4-0.5,0.4-1.3-0.1-1.8L47.2,32.3
		c-0.5-4.6-2.8-8.7-6.3-11.6c-3.5-2.8-8-4.1-12.5-3.5C24,17.6,20.1,19.8,17.2,23.4z M92.3,85.1l1.8-2.2l5.8,5.4l-1.2,1.4L92.3,85.1z
		 M35.2,49.3L46.6,35l48.7,42L87,87.4L35.2,49.3z M26.9,47.8l16.3-20.5c0.9,1.7,1.4,3.7,1.6,5.8L32.8,48
		C30.8,48.4,28.7,48.3,26.9,47.8z M19.3,25.1c2.4-3,5.8-4.9,9.6-5.3c3.8-0.4,7.5,0.7,10.5,3c0.8,0.7,1.6,1.4,2.2,2.2L24.3,46.9
		c-0.9-0.4-1.8-1.1-2.8-1.7C15.3,40.3,14.4,31.2,19.3,25.1z"/>
	<path class="st1" d="M110.2,59.3c0,0.1-0.1,0.1-0.3,0.1l0,0h-1.4l-0.9,1.3c0,0.1-0.1,0.1-0.3,0.1l0,0c-0.1,0-0.3-0.1-0.3-0.3
		l-0.4-1.4l-1.6-0.4c-0.1,0-0.3-0.1-0.3-0.3s0-0.3,0.1-0.3l1.2-0.9v-1.4c0-0.1,0.1-0.3,0.1-0.3c0.1,0,0.3,0,0.4,0l1.2,0.9l1.4-0.5
		c0.1,0,0.3,0,0.4,0.1c0.1,0.1,0.1,0.3,0.1,0.4l-0.5,1.4l0.9,1.2C110.2,59.2,110.2,59.3,110.2,59.3z"/>
	<path class="st1" d="M47.8,111.2c0,0.1-0.1,0.1-0.3,0.1h-1.4l-0.9,1.2c0,0.1-0.1,0.1-0.3,0.1l0,0c-0.1,0-0.3-0.1-0.3-0.3l-0.4-1.4
		l-1.6-0.3c-0.1,0-0.3-0.1-0.3-0.3c0-0.1,0-0.3,0.1-0.3l1.2-0.9v-1.4c0-0.1,0.1-0.3,0.1-0.3c0.1,0,0.3,0,0.4,0l1.2,0.9l1.4-0.5
		c0.1,0,0.3,0,0.4,0.1c0.1,0,0.1,0.1,0.1,0.3l-0.5,1.4l0.9,1.2C47.8,110.9,47.8,111,47.8,111.2z"/>
	<path class="st1" d="M102.1,52.4l-3.2,1.3L98.2,57c0,0.1-0.1,0.3-0.3,0.3c0,0,0,0-0.1,0c-0.1,0-0.1,0-0.3-0.1l-2.2-2.6L92,54.9
		c-0.1,0-0.3,0-0.3-0.1c-0.1-0.1-0.1-0.3,0-0.4l1.8-2.9l-1.3-3.2c0-0.1,0-0.3,0-0.4c0.1-0.1,0.3-0.1,0.4-0.1l3.3,0.8l2.5-2.2
		c0.1-0.1,0.3-0.1,0.4,0c0.1,0,0.1,0.1,0.3,0.3l0.3,3.4l2.9,1.7c0.1,0,0.1,0.1,0.1,0.3C102.2,52.2,102.2,52.4,102.1,52.4z"/>
	<path class="st1" d="M35.2,104l-3.2,1.3l-0.8,3.3c0,0.1-0.1,0.3-0.3,0.3c0,0,0,0-0.1,0c-0.1,0-0.1,0-0.3-0.1l-2.2-2.6l-3.4,0.4
		c-0.1,0-0.3,0-0.3-0.1c-0.1-0.1-0.1-0.3,0-0.4l1.8-2.9l-1.3-3.2c0-0.1,0-0.3,0-0.4c0.1-0.1,0.3-0.1,0.4-0.1l3.3,0.8l2.5-2.2
		c0.1-0.1,0.3-0.1,0.4,0c0.1,0,0.1,0.1,0.3,0.3l0.3,3.4l2.9,1.7c0.1,0,0.1,0.1,0.1,0.3C35.4,103.7,35.3,103.8,35.2,104z"/>
	<path class="st1" d="M100.7,32.3c-0.1,0-0.3,0-0.3-0.1c-0.1-0.1-0.1-0.3,0-0.4l1.8-2.9l-1.3-3.2c0-0.1,0-0.3,0-0.4
		c0.1-0.1,0.3-0.1,0.4-0.1l3.3,0.8l2.5-2.2c0.1-0.1,0.3-0.1,0.4,0c0.1,0,0.1,0.1,0.3,0.3l0.3,3.4l2.9,1.7c0.1,0,0.1,0.1,0.1,0.3
		c0,0.1-0.1,0.3-0.3,0.3l-3.2,1.3l-0.8,3.3c0,0.1-0.1,0.3-0.3,0.3c0,0,0,0-0.1,0c-0.1,0-0.1,0-0.3-0.1l-2.2-2.6L100.7,32.3z"/>
	<path class="st1" d="M91.1,39.1c-1.4,0.9-3.3,0.5-4.2-0.9v-0.1l-0.1-0.1l-5.4-8.5c-0.1,0.1-0.3,0.4-0.4,0.7c-0.8,1.2-1.7,2-2.8,2.2
		c-1.2,0.3-2-0.3-2.1-0.4c-0.7-0.4-0.8-1.2-0.4-1.8c0.4-0.7,1.2-0.8,1.8-0.4h0.1c0.1,0,0.5-0.1,1.1-1.1c1.3-2.1,2.1-2.8,3-2.8
		c0.4,0,0.8,0.3,1.1,0.7l0,0l4.9,7.6c0.1-0.1,0.3-0.1,0.4-0.3c1.4-0.9,3.3-0.5,4.2,0.9C93.2,36.2,92.5,38.2,91.1,39.1z"/>
	<path class="st1" d="M40,90.3c-0.7-0.4-0.9-1.2-0.5-1.8s1.2-0.9,1.8-0.5h0.1c0.1,0,0.5-0.3,0.9-1.1c1.2-2.2,1.8-2.9,2.8-2.9
		c0.4,0,0.9,0.3,1.2,0.5l0,0l5.4,7.2c0.1-0.1,0.3-0.3,0.4-0.3c1.3-1.1,3.3-0.8,4.3,0.7c1.1,1.3,0.8,3.3-0.7,4.3
		c-1.3,1.1-3.3,0.8-4.3-0.7l-0.1-0.1c0,0-0.1,0-0.1-0.1l-6-8c-0.1,0.3-0.3,0.4-0.4,0.8c-0.7,1.3-1.4,2.1-2.5,2.4
		C41.1,90.8,40.1,90.4,40,90.3z"/>
	<path class="st1" d="M33.1,75.7c-1.6,0.5-3.3-0.4-3.8-2.1v-0.1l-0.1-0.1l-2.9-9.6c-0.1,0.1-0.4,0.4-0.7,0.5
		c-1.1,0.9-2.1,1.4-3.2,1.4c-1.2,0-1.8-0.8-2-0.9c-0.5-0.5-0.4-1.3,0.1-1.8c0.5-0.5,1.3-0.4,1.8,0.1h0.1c0.1,0,0.5,0,1.3-0.7
		c1.8-1.7,2.8-2.1,3.5-1.8c0.4,0.1,0.8,0.5,0.9,0.9l0,0l2.6,8.7c0.1,0,0.3-0.1,0.4-0.1c1.6-0.5,3.3,0.4,3.8,2.1
		C35.6,73.5,34.6,75.2,33.1,75.7z"/>
</g>
<g id="Layer_6" class="st0">
	<g class="st1">
		<path d="M53.3,23.6c-1.8-1.8-2.7-3.9-2.7-6.4c0-2.5,0.9-4.7,2.7-6.5c1.8-1.8,4-2.7,6.5-2.7c2.5,0,4.6,0.9,6.4,2.7
			c1.8,1.8,2.7,4,2.7,6.5c0,2.5-0.9,4.6-2.7,6.4c-1.8,1.8-3.9,2.7-6.4,2.7C57.2,26.3,55.1,25.4,53.3,23.6z"/>
	</g>
	<g class="st1">
		<path d="M116.3,17.6c-0.2,0.3-0.5,0.6-0.8,0.8l5.7,4.4l4.9-4.6c0.3-0.2,0.6-0.4,0.9-0.5H116.3z"/>
		<polygon points="125.5,26.1 128.9,28.8 128.9,23 		"/>
		<path d="M109.7,14.3c0.4-1.6,1.9-2.8,3.7-2.8c1.8,0,3.2,1.2,3.7,2.8h11.9V0H80.6v14.3H109.7z"/>
		<path d="M121.5,29.8l-8.1,7.5c-0.5,0.5-1.2,0.7-1.8,0.7c-0.7,0-1.4-0.3-2-0.9c-1-1.1-1-2.8,0.1-3.8l7.4-7l-3.7-2.8L98.9,37.4
			c-0.5,0.5-1.2,0.7-1.8,0.7c-0.7,0-1.4-0.3-2-0.9c-1-1.1-1-2.8,0.1-3.8l16-15c-0.3-0.2-0.6-0.5-0.9-0.8H80.6v17.2l-11.4-5.7
			c-2-1.2-4.1-1.5-6.4-0.9c-0.9,0.2-1.7,0.5-2.5,0.9c-0.8,0.4-1.5,1-2.1,1.6c-1.4,1.2-2.6,2.8-3.6,4.8l-8,16.1l-12.5,2.4
			c-1.6,0.3-3.9,2-4,4.6c-0.1,1.3,0.5,2.3,1.6,3.2c1.1,0.9,2.1,1,3.6,0.8l15.2-3c0.8-0.3,1.4-0.5,1.7-0.7c0.3-0.2,0.8-0.8,1.4-1.7
			l4.8-9.3l4,11.5c0,0-10,10.4-14.6,16.2L47.5,76c-1.2,1.1-1.9,3.3-1.9,4.9l0,26.3c0,1.5,0.5,2.8,1.5,3.8c1,1,2.2,1.5,3.7,1.5
			c1.5,0,2.8-0.5,3.8-1.5c1-1,1.5-2.3,1.5-3.8V84.5c3.5-3.6,7.7-8.1,12.8-13.5c0.1,0.5,0.6,5.5,2.3,15.2c0.2,1,0.9,4.3,3.3,5.5
			c0,0,4.2,1.5,5.9,2.1V112h48.4V35.6L121.5,29.8z M80.6,34.9l9,4.5c1.5,1.1,1.9,2.1,2.1,2.5l7.6,14.6c0.5,1,0.8,2.1,0.5,3.2
			c-0.6,2.3-3,3.5-5.2,2.8c-1.1-0.3-2.1-1.2-2.6-2.2c-4.7-8.9-7.1-13.4-7.1-13.5l-4.2-2.3V34.9z M103.5,98.4c-1.2,1-2.8,1.2-4.3,1.1
			c-1.4-0.1-18.6-5.7-18.6-5.7V63.3l3.8,20.3l19.2,8.1c1.5,1.1,1.6,2,1.6,3.3C105.2,96.5,104.6,97.3,103.5,98.4z"/>
	</g>
</g>
<g id="Layer_7">
	<g>
		<path d="M59.6,33.6l3.7-12.4c0.5-1.7,0.2-3.5-0.9-4.9c-1.1-1.4-2.7-2.2-4.4-2.2H31.2c-1.7,0-3.4,0.8-4.4,2.2
			c-1,1.4-1.4,3.2-0.9,4.9l3.7,12.4H59.6z"/>
		<path d="M109.7,108.2c0,1.8-1.4,3.2-3.2,3.2H83.8c-1.8,0-3.2-1.4-3.2-3.2v-3.2c0-1.8,1.4-3.2,3.2-3.2h22.7c1.8,0,3.2,1.4,3.2,3.2
			V108.2z"/>
		<path d="M113,95.2c0,1.8-1.4,3.2-3.2,3.2H87c-1.8,0-3.2-1.4-3.2-3.2V92c0-1.8,1.4-3.2,3.2-3.2h22.7c1.8,0,3.2,1.4,3.2,3.2V95.2z"
			/>
		<path d="M109.7,82.2c0,1.8-1.4,3.2-3.2,3.2H83.8c-1.8,0-3.2-1.4-3.2-3.2V79c0-1.8,1.4-3.2,3.2-3.2h22.7c1.8,0,3.2,1.4,3.2,3.2
			V82.2z"/>
		<polygon points="85.7,47.9 88.8,54 94.9,57.1 88.8,60.2 85.7,66.2 82.6,60.2 76.5,57.1 82.6,54 		"/>
		<polygon points="98.7,27.1 101.1,32 105.9,34.4 101.1,36.8 98.7,41.6 96.2,36.8 91.4,34.4 96.2,32 		"/>
		<polygon points="101.9,46 103.4,49.1 106.5,50.6 103.4,52.1 101.9,55.2 100.4,52.1 97.3,50.6 100.4,49.1 		"/>
		<path d="M73.9,76.7L59.6,40.1h-30l-16,36.6c-2.4,8.1-0.8,16.8,4.3,23.6s18.3,10.7,26.8,10.7c8.4,0,20-4,25.1-10.7
			C74.7,93.6,76.3,84.8,73.9,76.7z M46.6,88.4v2.5c0,1.3-1,2.3-2.3,2.3c-1.3,0-2.3-1-2.3-2.3v-2.2c-1.9-0.1-3.6-0.4-5.2-0.9
			c-1.6-0.5-2.6-2.1-2.1-3.8l0,0c0.2-0.7,0.6-1.2,1.2-1.6c0.6-0.3,1.3-0.4,2-0.1c1.6,0.6,3.4,0.9,5.3,0.9c2.7,0,4.5-1,4.5-2.9
			c0-1.8-1.5-2.9-5-4.1c-5-1.7-8.5-4-8.5-8.6c0-4.1,2.9-7.4,7.9-8.4v-2.2c0-1.3,1-2.3,2.3-2.3c1.3,0,2.3,1,2.3,2.3V59
			c1.5,0.1,2.8,0.3,3.9,0.5c0.8,0.2,1.4,0.7,1.9,1.4c0.4,0.7,0.5,1.5,0.3,2.3l0,0c-0.2,0.6-0.6,1.2-1.2,1.5
			c-0.6,0.3-1.3,0.4-1.9,0.2c-1.1-0.4-2.6-0.7-4.4-0.7c-3.1,0-4,1.3-4,2.6c0,1.5,1.6,2.5,5.6,4c5.6,2,7.8,4.6,7.8,8.8
			C54.9,83.9,52,87.4,46.6,88.4z"/>
	</g>
</g>
</svg>
